<svg id="Layer_1" enable-background="new 0 0 512 512" height="512" viewBox="0 0 512 512" width="512" xmlns="http://www.w3.org/2000/svg"><g><path d="m365.149 252.99c0-19.003-15.46-34.463-34.463-34.463s-34.463 15.46-34.463 34.463 15.46 34.463 34.463 34.463 34.463-15.46 34.463-34.463zm-53.926 0c0-10.732 8.731-19.463 19.463-19.463s19.463 8.731 19.463 19.463-8.731 19.463-19.463 19.463-19.463-8.731-19.463-19.463z"/><path d="m504.5 169.218c-15.765 0-28.59-12.825-28.59-28.59 0-4.142-3.358-7.5-7.5-7.5h-82.35l-97.208-58.93c1.046-3.289 1.611-6.791 1.611-10.423 0-19.003-15.46-34.463-34.463-34.463s-34.463 15.46-34.463 34.463c0 3.631.565 7.133 1.611 10.423l-97.208 58.93h-82.35c-4.142 0-7.5 3.358-7.5 7.5 0 15.765-12.825 28.59-28.59 28.59-4.142 0-7.5 3.358-7.5 7.5v262.381c0 4.142 3.358 7.5 7.5 7.5 15.765 0 28.59 12.825 28.59 28.59 0 4.142 3.358 7.5 7.5 7.5h348.462c4.142 0 7.5-3.358 7.5-7.5s-3.358-7.5-7.5-7.5h-341.608c-3.141-18.037-17.407-32.304-35.444-35.445v-248.672c18.037-3.141 32.303-17.408 35.444-35.444h411.111c3.141 18.037 17.408 32.303 35.444 35.444v248.672c-18.037 3.141-32.303 17.408-35.444 35.444h-35.083c-4.142 0-7.5 3.358-7.5 7.5s3.358 7.5 7.5 7.5h41.937c4.142 0 7.5-3.358 7.5-7.5 0-15.765 12.825-28.59 28.59-28.59 4.142 0 7.5-3.358 7.5-7.5v-262.38c.001-4.142-3.357-7.5-7.499-7.5zm-248.5-124.906c10.732 0 19.463 8.731 19.463 19.463s-8.731 19.463-19.463 19.463-19.463-8.731-19.463-19.463 8.731-19.463 19.463-19.463zm-25.295 42.846c6.3 6.81 15.308 11.08 25.295 11.08s18.995-4.27 25.294-11.08l75.83 45.97h-202.25z"/><path d="m70.918 183.128h23.205c4.142 0 7.5-3.358 7.5-7.5s-3.358-7.5-7.5-7.5h-27.337c-2.651 0-5.105 1.399-6.455 3.681-5.265 8.898-12.751 16.385-21.65 21.65-2.282 1.35-3.681 3.804-3.681 6.455v215.988c0 2.651 1.399 5.105 3.681 6.455 8.899 5.265 16.386 12.751 21.65 21.65 1.35 2.282 3.804 3.681 6.455 3.681h378.427c2.651 0 5.105-1.399 6.455-3.681 5.264-8.899 12.751-16.385 21.65-21.65 2.282-1.35 3.681-3.804 3.681-6.455v-215.988c0-2.651-1.399-5.105-3.681-6.455-8.899-5.265-16.385-12.751-21.65-21.65-1.35-2.282-3.804-3.681-6.455-3.681h-316.412c-4.142 0-7.5 3.358-7.5 7.5s3.358 7.5 7.5 7.5h312.28c5.541 8.248 12.67 15.377 20.918 20.918v152.524l-62.965-62.965c-1.406-1.407-3.314-2.197-5.303-2.197s-3.897.79-5.303 2.197l-57.742 57.742-107.742-107.743c-2.929-2.929-7.678-2.929-10.606 0l-54.383 54.383-34.383-34.383c-1.406-1.407-3.314-2.197-5.303-2.197s-3.897.79-5.303 2.197l-62.966 62.966v-122.524c8.249-5.541 15.377-12.67 20.918-20.918zm47.35 96.386 56.028 56.028c1.464 1.464 3.384 2.197 5.303 2.197s3.839-.732 5.303-2.197c2.929-2.929 2.929-7.678 0-10.606l-16.341-16.341 49.08-49.08 107.742 107.742 22.39 22.391c1.464 1.465 3.384 2.197 5.303 2.197s3.839-.732 5.303-2.197c2.929-2.929 2.929-7.678 0-10.606l-17.087-17.087 52.439-52.439 68.269 68.267v33.987c-8.249 5.542-15.378 12.67-20.918 20.919h-370.163c-5.541-8.249-12.67-15.378-20.919-20.919v-63.987z"/></g></svg>
